<?xml version="1.0" standalone="yes"?><!DOCTYPE svg PUBLIC "-//W3C//DTD SVG 1.1//EN" "http://www.w3.org/Graphics/SVG/1.1/DTD/svg11.dtd"[
<!ENTITY E3 'stroke:none;opacity:1;fill:rgb(255,255,255);'><!ENTITY E5 'matrix(1.00 0.00 0.00 1.00 0.00 0.00 ) '><!ENTITY E1 'matrix(1.00 0.00 0.00 1.00 84.00 4.00 ) '><!ENTITY E2 'stroke:none;opacity:1;fill:rgb(238,192,75);'><!ENTITY E7 'matrix(1.00 0.00 0.00 1.00 4.00 4.00 ) '>
]><svg width="154.9836" height="66.65038" id="SvgGdi_output" xmlns="http://www.w3.org/2000/svg" xmlns:xlink="http://www.w3.org/1999/xlink"><rect id="background" height="100.00%" style="fill:rgb(255,255,255);" width="100.00%" y="0.00" x="0.00" /><g style="shape-rendering:auto;" id="root_group"><ellipse id="252" cy="15.00" cx="15.00" transform="&E1;" rx="15.00" ry="15.00" style="&E2;" /><rect id="253" height="8.00" style="&E3;" transform="&E1;" width="3.50" y="13.50" x="6.59" /><rect id="254" height="15.00" style="&E3;" transform="&E1;" width="3.50" y="6.50" x="11.04" /><rect id="255" height="10.00" style="&E3;" transform="&E1;" width="3.50" y="11.50" x="15.48" /><rect id="256" height="6.00" style="&E3;" transform="&E1;" width="3.50" y="15.50" x="19.92" /><text id="257" transform="&E5;" x="84.00px" y="39.00px" style="stroke:none;clip-path:url(#259_text_clipper);font-family:Microsoft Sans Serif;fill:rgb(0,0,0);font-size:8.25pt;opacity:1;"><tspan dy="8.25pt" id="261">RollingGraph</tspan></text><text id="263" transform="&E5;" x="84.00px" y="51.45px" style="stroke:none;clip-path:url(#265_text_clipper);font-family:Microsoft Sans Serif;fill:rgb(0,0,0);font-size:8.25pt;opacity:1;"><tspan dy="8.25pt" id="267">Panel</tspan></text><ellipse id="269" cy="15.00" cx="15.00" transform="&E7;" rx="15.00" ry="15.00" style="&E2;" /><rect id="270" height="8.00" style="&E3;" transform="&E7;" width="3.50" y="13.50" x="6.59" /><rect id="271" height="15.00" style="&E3;" transform="&E7;" width="3.50" y="6.50" x="11.04" /><rect id="272" height="10.00" style="&E3;" transform="&E7;" width="3.50" y="11.50" x="15.48" /><rect id="273" height="6.00" style="&E3;" transform="&E7;" width="3.50" y="15.50" x="19.92" /><text id="274" transform="&E5;" x="4.00px" y="39.00px" style="stroke:none;clip-path:url(#276_text_clipper);font-family:Microsoft Sans Serif;fill:rgb(0,0,0);font-size:8.25pt;opacity:1;"><tspan dy="8.25pt" id="278">GraphPanel</tspan></text></g><defs id="clips_hatches_and_gradients"><clipPath id="259_text_clipper"><rect x="84.00" y="39.00" width="69.98" height="27.65" id="260" /></clipPath><clipPath id="265_text_clipper"><rect x="84.00" y="51.45" width="69.98" height="27.65" id="266" /></clipPath><clipPath id="276_text_clipper"><rect x="4.00" y="39.00" width="64.19" height="13.83" id="277" /></clipPath></defs></svg>