<?xml version="1.0" standalone="yes"?><!DOCTYPE svg PUBLIC "-//W3C//DTD SVG 1.1//EN" "http://www.w3.org/Graphics/SVG/1.1/DTD/svg11.dtd"[
<!ENTITY E20 'matrix(1.00 0.00 0.00 1.00 84.00 4.00 ) '><!ENTITY E3 'stroke:none;opacity:1;fill:rgb(255,255,255);'><!ENTITY E8 'matrix(1.00 0.00 0.00 1.00 564.00 4.00 ) '><!ENTITY E16 'matrix(1.00 0.00 0.00 1.00 244.00 4.00 ) '><!ENTITY E18 'matrix(1.00 0.00 0.00 1.00 164.00 4.00 ) '><!ENTITY E12 'matrix(1.00 0.00 0.00 1.00 404.00 4.00 ) '><!ENTITY E22 'matrix(1.00 0.00 0.00 1.00 4.00 4.00 ) '><!ENTITY E1 'matrix(1.00 0.00 0.00 1.00 724.00 4.00 ) '><!ENTITY E2 'stroke:none;opacity:1;fill:rgb(238,192,75);'><!ENTITY E6 'matrix(1.00 0.00 0.00 1.00 644.00 4.00 ) '><!ENTITY E14 'matrix(1.00 0.00 0.00 1.00 324.00 4.00 ) '><!ENTITY E5 'matrix(1.00 0.00 0.00 1.00 0.00 0.00 ) '><!ENTITY E10 'matrix(1.00 0.00 0.00 1.00 484.00 4.00 ) '>
]><svg width="796.1276" height="52.82519" id="SvgGdi_output" xmlns="http://www.w3.org/2000/svg" xmlns:xlink="http://www.w3.org/1999/xlink"><rect id="background" height="100.00%" style="fill:rgb(255,255,255);" width="100.00%" y="0.00" x="0.00" /><g style="shape-rendering:auto;" id="root_group"><ellipse id="58" cy="15.00" cx="15.00" transform="&E1;" rx="15.00" ry="15.00" style="&E2;" /><rect id="59" height="8.00" style="&E3;" transform="&E1;" width="3.50" y="13.50" x="6.59" /><rect id="60" height="15.00" style="&E3;" transform="&E1;" width="3.50" y="6.50" x="11.04" /><rect id="61" height="10.00" style="&E3;" transform="&E1;" width="3.50" y="11.50" x="15.48" /><rect id="62" height="6.00" style="&E3;" transform="&E1;" width="3.50" y="15.50" x="19.92" /><text id="63" transform="&E5;" x="724.00px" y="39.00px" style="stroke:none;clip-path:url(#65_text_clipper);font-family:Microsoft Sans Serif;fill:rgb(0,0,0);font-size:8.25pt;opacity:1;"><tspan dy="8.25pt" id="67">ToggleButton</tspan></text><ellipse id="69" cy="15.00" cx="15.00" transform="&E6;" rx="15.00" ry="15.00" style="&E2;" /><rect id="70" height="8.00" style="&E3;" transform="&E6;" width="3.50" y="13.50" x="6.59" /><rect id="71" height="15.00" style="&E3;" transform="&E6;" width="3.50" y="6.50" x="11.04" /><rect id="72" height="10.00" style="&E3;" transform="&E6;" width="3.50" y="11.50" x="15.48" /><rect id="73" height="6.00" style="&E3;" transform="&E6;" width="3.50" y="15.50" x="19.92" /><text id="74" transform="&E5;" x="644.00px" y="39.00px" style="stroke:none;clip-path:url(#76_text_clipper);font-family:Microsoft Sans Serif;fill:rgb(0,0,0);font-size:8.25pt;opacity:1;"><tspan dy="8.25pt" id="78">TextBox</tspan></text><ellipse id="80" cy="15.00" cx="15.00" transform="&E8;" rx="15.00" ry="15.00" style="&E2;" /><rect id="81" height="8.00" style="&E3;" transform="&E8;" width="3.50" y="13.50" x="6.59" /><rect id="82" height="15.00" style="&E3;" transform="&E8;" width="3.50" y="6.50" x="11.04" /><rect id="83" height="10.00" style="&E3;" transform="&E8;" width="3.50" y="11.50" x="15.48" /><rect id="84" height="6.00" style="&E3;" transform="&E8;" width="3.50" y="15.50" x="19.92" /><text id="85" transform="&E5;" x="564.00px" y="39.00px" style="stroke:none;clip-path:url(#87_text_clipper);font-family:Microsoft Sans Serif;fill:rgb(0,0,0);font-size:8.25pt;opacity:1;"><tspan dy="8.25pt" id="89">Slider</tspan></text><ellipse id="91" cy="15.00" cx="15.00" transform="&E10;" rx="15.00" ry="15.00" style="&E2;" /><rect id="92" height="8.00" style="&E3;" transform="&E10;" width="3.50" y="13.50" x="6.59" /><rect id="93" height="15.00" style="&E3;" transform="&E10;" width="3.50" y="6.50" x="11.04" /><rect id="94" height="10.00" style="&E3;" transform="&E10;" width="3.50" y="11.50" x="15.48" /><rect id="95" height="6.00" style="&E3;" transform="&E10;" width="3.50" y="15.50" x="19.92" /><text id="96" transform="&E5;" x="484.00px" y="39.00px" style="stroke:none;clip-path:url(#98_text_clipper);font-family:Microsoft Sans Serif;fill:rgb(0,0,0);font-size:8.25pt;opacity:1;"><tspan dy="8.25pt" id="100">RadioButton</tspan></text><ellipse id="102" cy="15.00" cx="15.00" transform="&E12;" rx="15.00" ry="15.00" style="&E2;" /><rect id="103" height="8.00" style="&E3;" transform="&E12;" width="3.50" y="13.50" x="6.59" /><rect id="104" height="15.00" style="&E3;" transform="&E12;" width="3.50" y="6.50" x="11.04" /><rect id="105" height="10.00" style="&E3;" transform="&E12;" width="3.50" y="11.50" x="15.48" /><rect id="106" height="6.00" style="&E3;" transform="&E12;" width="3.50" y="15.50" x="19.92" /><text id="107" transform="&E5;" x="404.00px" y="39.00px" style="stroke:none;clip-path:url(#109_text_clipper);font-family:Microsoft Sans Serif;fill:rgb(0,0,0);font-size:8.25pt;opacity:1;"><tspan dy="8.25pt" id="111">PropertyGrid</tspan></text><ellipse id="113" cy="15.00" cx="15.00" transform="&E14;" rx="15.00" ry="15.00" style="&E2;" /><rect id="114" height="8.00" style="&E3;" transform="&E14;" width="3.50" y="13.50" x="6.59" /><rect id="115" height="15.00" style="&E3;" transform="&E14;" width="3.50" y="6.50" x="11.04" /><rect id="116" height="10.00" style="&E3;" transform="&E14;" width="3.50" y="11.50" x="15.48" /><rect id="117" height="6.00" style="&E3;" transform="&E14;" width="3.50" y="15.50" x="19.92" /><text id="118" transform="&E5;" x="324.00px" y="39.00px" style="stroke:none;clip-path:url(#120_text_clipper);font-family:Microsoft Sans Serif;fill:rgb(0,0,0);font-size:8.25pt;opacity:1;"><tspan dy="8.25pt" id="122">ListBox</tspan></text><ellipse id="124" cy="15.00" cx="15.00" transform="&E16;" rx="15.00" ry="15.00" style="&E2;" /><rect id="125" height="8.00" style="&E3;" transform="&E16;" width="3.50" y="13.50" x="6.59" /><rect id="126" height="15.00" style="&E3;" transform="&E16;" width="3.50" y="6.50" x="11.04" /><rect id="127" height="10.00" style="&E3;" transform="&E16;" width="3.50" y="11.50" x="15.48" /><rect id="128" height="6.00" style="&E3;" transform="&E16;" width="3.50" y="15.50" x="19.92" /><text id="129" transform="&E5;" x="244.00px" y="39.00px" style="stroke:none;clip-path:url(#131_text_clipper);font-family:Microsoft Sans Serif;fill:rgb(0,0,0);font-size:8.25pt;opacity:1;"><tspan dy="8.25pt" id="133">Label</tspan></text><ellipse id="135" cy="15.00" cx="15.00" transform="&E18;" rx="15.00" ry="15.00" style="&E2;" /><rect id="136" height="8.00" style="&E3;" transform="&E18;" width="3.50" y="13.50" x="6.59" /><rect id="137" height="15.00" style="&E3;" transform="&E18;" width="3.50" y="6.50" x="11.04" /><rect id="138" height="10.00" style="&E3;" transform="&E18;" width="3.50" y="11.50" x="15.48" /><rect id="139" height="6.00" style="&E3;" transform="&E18;" width="3.50" y="15.50" x="19.92" /><text id="140" transform="&E5;" x="164.00px" y="39.00px" style="stroke:none;clip-path:url(#142_text_clipper);font-family:Microsoft Sans Serif;fill:rgb(0,0,0);font-size:8.25pt;opacity:1;"><tspan dy="8.25pt" id="144">ComboBox</tspan></text><ellipse id="146" cy="15.00" cx="15.00" transform="&E20;" rx="15.00" ry="15.00" style="&E2;" /><rect id="147" height="8.00" style="&E3;" transform="&E20;" width="3.50" y="13.50" x="6.59" /><rect id="148" height="15.00" style="&E3;" transform="&E20;" width="3.50" y="6.50" x="11.04" /><rect id="149" height="10.00" style="&E3;" transform="&E20;" width="3.50" y="11.50" x="15.48" /><rect id="150" height="6.00" style="&E3;" transform="&E20;" width="3.50" y="15.50" x="19.92" /><text id="151" transform="&E5;" x="84.00px" y="39.00px" style="stroke:none;clip-path:url(#153_text_clipper);font-family:Microsoft Sans Serif;fill:rgb(0,0,0);font-size:8.25pt;opacity:1;"><tspan dy="8.25pt" id="155">CheckBox</tspan></text><ellipse id="157" cy="15.00" cx="15.00" transform="&E22;" rx="15.00" ry="15.00" style="&E2;" /><rect id="158" height="8.00" style="&E3;" transform="&E22;" width="3.50" y="13.50" x="6.59" /><rect id="159" height="15.00" style="&E3;" transform="&E22;" width="3.50" y="6.50" x="11.04" /><rect id="160" height="10.00" style="&E3;" transform="&E22;" width="3.50" y="11.50" x="15.48" /><rect id="161" height="6.00" style="&E3;" transform="&E22;" width="3.50" y="15.50" x="19.92" /><text id="162" transform="&E5;" x="4.00px" y="39.00px" style="stroke:none;clip-path:url(#164_text_clipper);font-family:Microsoft Sans Serif;fill:rgb(0,0,0);font-size:8.25pt;opacity:1;"><tspan dy="8.25pt" id="166">Button</tspan></text></g><defs id="clips_hatches_and_gradients"><clipPath id="65_text_clipper"><rect x="724.00" y="39.00" width="71.13" height="13.83" id="66" /></clipPath><clipPath id="76_text_clipper"><rect x="644.00" y="39.00" width="45.23" height="13.83" id="77" /></clipPath><clipPath id="87_text_clipper"><rect x="564.00" y="39.00" width="32.76" height="13.83" id="88" /></clipPath><clipPath id="98_text_clipper"><rect x="484.00" y="39.00" width="66.08" height="13.83" id="99" /></clipPath><clipPath id="109_text_clipper"><rect x="404.00" y="39.00" width="67.95" height="13.83" id="110" /></clipPath><clipPath id="120_text_clipper"><rect x="324.00" y="39.00" width="40.89" height="13.83" id="121" /></clipPath><clipPath id="131_text_clipper"><rect x="244.00" y="39.00" width="31.45" height="13.83" id="132" /></clipPath><clipPath id="142_text_clipper"><rect x="164.00" y="39.00" width="59.71" height="13.83" id="143" /></clipPath><clipPath id="153_text_clipper"><rect x="84.00" y="39.00" width="55.30" height="13.83" id="154" /></clipPath><clipPath id="164_text_clipper"><rect x="4.00" y="39.00" width="36.42" height="13.83" id="165" /></clipPath></defs></svg>