<?xml version="1.0" standalone="yes"?><!DOCTYPE svg PUBLIC "-//W3C//DTD SVG 1.1//EN" "http://www.w3.org/Graphics/SVG/1.1/DTD/svg11.dtd"[
<!ENTITY E8 'matrix(1.00 0.00 0.00 1.00 84.00 4.00 ) '><!ENTITY E3 'stroke:none;opacity:1;fill:rgb(255,255,255);'><!ENTITY E7 'matrix(1.00 0.00 0.00 1.00 0.00 0.00 ) '><!ENTITY E2 'stroke:none;opacity:1;fill:rgb(238,192,75);'><!ENTITY E10 'matrix(1.00 0.00 0.00 1.00 4.00 4.00 ) '><!ENTITY E4 'stroke:rgb(169,169,169);fill:none;stroke-linecap:butt;stroke-miterlimit:9;opacity:1;stroke-width:2;stroke-linejoin:miter;'><!ENTITY E5 'stroke:none;opacity:1;fill:rgb(0,0,0);'><!ENTITY E1 'matrix(1.00 0.00 0.00 1.00 164.00 4.00 ) '>
]><svg width="234.9836" height="52.82519" id="SvgGdi_output" xmlns="http://www.w3.org/2000/svg" xmlns:xlink="http://www.w3.org/1999/xlink"><rect id="background" height="100.00%" style="fill:rgb(255,255,255);" width="100.00%" y="0.00" x="0.00" /><g style="shape-rendering:auto;" id="root_group"><ellipse id="211" cy="15.00" cx="15.00" transform="&E1;" rx="15.00" ry="15.00" style="&E2;" /><rect id="212" height="8.00" style="&E3;" transform="&E1;" width="3.50" y="13.50" x="6.59" /><rect id="213" height="15.00" style="&E3;" transform="&E1;" width="3.50" y="6.50" x="11.04" /><rect id="214" height="10.00" style="&E3;" transform="&E1;" width="3.50" y="11.50" x="15.48" /><rect id="215" height="6.00" style="&E3;" transform="&E1;" width="3.50" y="15.50" x="19.92" /><ellipse id="216" cy="19.00" cx="164.00" rx="3.00" ry="3.00" style="&E4;" /><ellipse id="217" cy="19.00" cx="164.00" rx="3.00" ry="3.00" style="&E5;" /><text id="218" transform="&E7;" x="164.00px" y="39.00px" style="stroke:none;clip-path:url(#220_text_clipper);font-family:Microsoft Sans Serif;fill:rgb(0,0,0);font-size:8.25pt;opacity:1;"><tspan dy="8.25pt" id="222">RollingGraph</tspan></text><ellipse id="224" cy="15.00" cx="15.00" transform="&E8;" rx="15.00" ry="15.00" style="&E2;" /><rect id="225" height="8.00" style="&E3;" transform="&E8;" width="3.50" y="13.50" x="6.59" /><rect id="226" height="15.00" style="&E3;" transform="&E8;" width="3.50" y="6.50" x="11.04" /><rect id="227" height="10.00" style="&E3;" transform="&E8;" width="3.50" y="11.50" x="15.48" /><rect id="228" height="6.00" style="&E3;" transform="&E8;" width="3.50" y="15.50" x="19.92" /><ellipse id="229" cy="19.00" cx="84.00" rx="3.00" ry="3.00" style="&E4;" /><ellipse id="230" cy="19.00" cx="84.00" rx="3.00" ry="3.00" style="&E5;" /><text id="231" transform="&E7;" x="84.00px" y="39.00px" style="stroke:none;clip-path:url(#233_text_clipper);font-family:Microsoft Sans Serif;fill:rgb(0,0,0);font-size:8.25pt;opacity:1;"><tspan dy="8.25pt" id="235">LineGraph</tspan></text><ellipse id="237" cy="15.00" cx="15.00" transform="&E10;" rx="15.00" ry="15.00" style="&E2;" /><rect id="238" height="8.00" style="&E3;" transform="&E10;" width="3.50" y="13.50" x="6.59" /><rect id="239" height="15.00" style="&E3;" transform="&E10;" width="3.50" y="6.50" x="11.04" /><rect id="240" height="10.00" style="&E3;" transform="&E10;" width="3.50" y="11.50" x="15.48" /><rect id="241" height="6.00" style="&E3;" transform="&E10;" width="3.50" y="15.50" x="19.92" /><ellipse id="242" cy="19.00" cx="4.00" rx="3.00" ry="3.00" style="&E4;" /><ellipse id="243" cy="19.00" cx="4.00" rx="3.00" ry="3.00" style="&E5;" /><text id="244" transform="&E7;" x="4.00px" y="39.00px" style="stroke:none;clip-path:url(#246_text_clipper);font-family:Microsoft Sans Serif;fill:rgb(0,0,0);font-size:8.25pt;opacity:1;"><tspan dy="8.25pt" id="248">BarGraph</tspan></text></g><defs id="clips_hatches_and_gradients"><clipPath id="220_text_clipper"><rect x="164.00" y="39.00" width="69.98" height="13.83" id="221" /></clipPath><clipPath id="233_text_clipper"><rect x="84.00" y="39.00" width="56.64" height="13.83" id="234" /></clipPath><clipPath id="246_text_clipper"><rect x="4.00" y="39.00" width="52.78" height="13.83" id="247" /></clipPath></defs></svg>